<?xml version="1.0" encoding="UTF-8"?>
<!DOCTYPE svg PUBLIC "-//W3C//DTD SVG 1.1//EN" "http://www.w3.org/Graphics/SVG/1.1/DTD/svg11.dtd">
<svg version="1.1" xmlns="http://www.w3.org/2000/svg" xmlns:xlink="http://www.w3.org/1999/xlink" x="0" y="0" width="24" height="24" viewBox="0, 0, 24, 24">
  <g id="Background">
    <rect x="0" y="0" width="24" height="24" fill="#000000" fill-opacity="0"/>
  </g>
  <g id="Layer_1">
    <path d="M12,10.2 C10.524,10.2 9.3,11.388 9.3,12.9 C9.3,14.376 10.524,15.6 12,15.6 C13.512,15.6 14.7,14.376 14.7,12.9 C14.7,11.388 13.512,10.2 12,10.2 z M19.2,7.5 L17.04,7.5 C16.752,7.5 16.428,7.248 16.32,6.96 L15.78,5.304 C15.672,5.016 15.348,4.8 15.06,4.8 L8.94,4.8 C8.652,4.8 8.328,5.016 8.22,5.304 L7.68,6.96 C7.572,7.248 7.248,7.5 6.96,7.5 L4.8,7.5 C3.828,7.5 3,8.292 3,9.3 L3,17.4 C3,18.372 3.828,19.2 4.8,19.2 L19.2,19.2 C20.208,19.2 21,18.372 21,17.4 L21,9.3 C21,8.292 20.208,7.5 19.2,7.5 z M12,17.4 C9.516,17.4 7.5,15.384 7.5,12.9 C7.5,10.416 9.516,8.4 12,8.4 C14.484,8.4 16.5,10.416 16.5,12.9 C16.5,15.384 14.484,17.4 12,17.4 z M18.588,10.56 C18.228,10.56 17.94,10.272 17.94,9.912 C17.94,9.552 18.228,9.3 18.588,9.3 C18.912,9.3 19.2,9.552 19.2,9.912 C19.2,10.272 18.912,10.56 18.588,10.56 z" fill="#000000" fill-opacity="0.54"/>
  </g>
</svg>
