<?xml version="1.0" encoding="UTF-8"?>
<!DOCTYPE svg PUBLIC "-//W3C//DTD SVG 1.1//EN" "http://www.w3.org/Graphics/SVG/1.1/DTD/svg11.dtd">
<svg version="1.1" xmlns="http://www.w3.org/2000/svg" xmlns:xlink="http://www.w3.org/1999/xlink" x="0" y="0" width="24" height="24" viewBox="0, 0, 24, 24">
  <g id="Background">
    <rect x="0" y="0" width="24" height="24" fill="#000000" fill-opacity="0"/>
  </g>
  <g id="Background"/>
  <g id="Layer_1">
    <path d="M21.419,4.046 C21.071,4.176 2.609,10.692 2.262,10.822 C1.958,10.909 1.871,11.213 2.262,11.344 C2.696,11.518 6.388,12.994 6.388,12.994 L8.821,13.95 C8.821,13.95 20.593,5.349 20.767,5.219 C20.897,5.088 21.114,5.306 20.984,5.436 C20.854,5.566 12.427,14.689 12.427,14.689 L11.949,15.253 L12.6,15.601 C12.6,15.601 17.639,18.294 17.987,18.511 C18.334,18.685 18.725,18.511 18.812,18.12 C18.942,17.686 21.896,4.828 21.983,4.524 C22.07,4.176 21.809,3.916 21.419,4.046 z M8.778,19.858 C8.778,20.119 8.951,20.162 9.169,19.988 C9.429,19.728 12.253,17.208 12.253,17.208 L8.778,15.427 z" fill="#795548"/>
  </g>
</svg>
