<?xml version="1.0" encoding="UTF-8"?>
<!DOCTYPE svg PUBLIC "-//W3C//DTD SVG 1.1//EN" "http://www.w3.org/Graphics/SVG/1.1/DTD/svg11.dtd">
<svg version="1.1" xmlns="http://www.w3.org/2000/svg" xmlns:xlink="http://www.w3.org/1999/xlink" x="0" y="0" width="24" height="24" viewBox="0, 0, 24, 24">
  <g id="Background">
    <rect x="0" y="0" width="24" height="24" fill="#000000" fill-opacity="0"/>
  </g>
  <g id="Layer_1">
    <path d="M7.083,16.61 C4.58,13.932 4.624,9.761 7.215,7.171 C8.268,6.117 9.585,5.459 10.99,5.239 L10.902,3 C8.971,3.22 7.127,4.054 5.634,5.546 C2.166,9.059 2.122,14.678 5.502,18.234 L3.571,20.122 L9.629,20.473 L9.629,14.063 z M14.371,3.483 L14.415,9.893 L16.917,7.346 C19.42,10.024 19.376,14.195 16.785,16.785 C15.732,17.839 14.415,18.498 13.054,18.717 L13.098,21 C15.029,20.737 16.917,19.902 18.366,18.41 C21.834,14.898 21.878,9.322 18.498,5.722 L20.429,3.834 z" fill="#FFFFFF"/>
  </g>
</svg>
