<?xml version="1.0" encoding="UTF-8"?>
<!DOCTYPE svg PUBLIC "-//W3C//DTD SVG 1.1//EN" "http://www.w3.org/Graphics/SVG/1.1/DTD/svg11.dtd">
<svg version="1.1" xmlns="http://www.w3.org/2000/svg" xmlns:xlink="http://www.w3.org/1999/xlink" x="0" y="0" width="24" height="24" viewBox="0, 0, 24, 24">
  <g id="Background">
    <rect x="0" y="0" width="24" height="24" fill="#000000" fill-opacity="0"/>
  </g>
  <g id="Layer_1">
    <path d="M19.5,10.75 L4.5,10.75 C3.8,10.75 3.25,11.3 3.25,12 C3.25,12.65 3.8,13.25 4.5,13.25 L19.5,13.25 C20.2,13.25 20.75,12.65 20.75,12 C20.75,11.3 20.2,10.75 19.5,10.75 z M4.5,8.25 L19.5,8.25 C20.2,8.25 20.75,7.65 20.75,7 C20.75,6.3 20.2,5.75 19.5,5.75 L4.5,5.75 C3.8,5.75 3.25,6.3 3.25,7 C3.25,7.65 3.8,8.25 4.5,8.25 z M19.5,15.75 L4.5,15.75 C3.8,15.75 3.25,16.3 3.25,17 C3.25,17.65 3.8,18.25 4.5,18.25 L19.5,18.25 C20.2,18.25 20.75,17.65 20.75,17 C20.75,16.3 20.2,15.75 19.5,15.75 z" fill="#ffffff"/>
  </g>
</svg>
